<svg width="40" height="40" viewBox="0 0 40 40" fill="none" xmlns="http://www.w3.org/2000/svg">
<path d="M24.7988 16.9464C27.3938 19.5414 27.3938 23.7488 24.7988 26.3438C22.2038 28.9389 17.9964 28.9389 15.4014 26.3438C12.8063 23.7488 12.8063 19.5414 15.4014 16.9464C17.9964 14.3514 22.2038 14.3514 24.7988 16.9464" stroke="#FF61E6" stroke-width="1.5" stroke-linecap="round" stroke-linejoin="round"/>
<path fill-rule="evenodd" clip-rule="evenodd" d="M35.0001 15V30C35.0001 31.8417 33.5084 33.3334 31.6667 33.3334H8.33339C6.49173 33.3334 5.00006 31.8417 5.00006 30V15C5.00006 13.1584 6.49173 11.6667 8.33339 11.6667H11.6667L14.1034 7.49335C14.4017 6.98169 14.9501 6.66669 15.5434 6.66669H24.3834C24.9684 6.66669 25.5101 6.97335 25.8117 7.47335L28.3334 11.6667H31.6667C33.5084 11.6667 35.0001 13.1584 35.0001 15Z" stroke="#FF61E6" stroke-width="1.5" stroke-linecap="round" stroke-linejoin="round"/>
</svg>
