<svg width="277" height="11" viewBox="0 0 277 11" fill="none" xmlns="http://www.w3.org/2000/svg">
<path d="M118.001 6.93036C103.703 4.92329 89.3799 8.57311 74.9561 7.68938C68.573 7.29829 62.1496 8.03336 55.7522 7.94778C47.1751 7.83305 38.6253 8.39276 30.0058 8.31832C20.2735 8.23427 10.3363 8.67137 0.717041 9.94347M275.592 3.05233C271.447 1.85489 266.254 1.99868 261.986 1.48504C245.462 -0.503375 233.123 4.15918 216.5 4.64548C204.254 5.00376 188.868 1.86665 176.995 4.64542C172.425 5.71502 167.919 6.80481 163.251 7.26149C161.726 7.41069 159.287 8.3352 157.83 7.88756C155.814 7.2681 152.057 8.27514 150 7.88756" stroke="#B0B8DC" stroke-linecap="round"/>
</svg>
