<svg width="16" height="17" viewBox="0 0 16 17" fill="none" xmlns="http://www.w3.org/2000/svg">
<path d="M0.177863 14.2653C0.620818 12.6181 4.97056 9.68572 3.92537 7.96272C2.6684 5.8906 1.87418 3.77635 1.69928 1.42612C1.67881 1.15116 5.49835 4.29785 6.16025 5.07552C6.72926 5.74406 8.60657 4.78836 9.2978 4.70722C10.431 4.5742 11.4144 4.37938 12.4037 4.0047C12.774 3.86444 15.0484 3.52593 14.8386 3.80533C13.9156 5.03478 12.8775 6.0028 11.7886 7.03969C11.2485 7.55408 9.97182 8.49639 10.1481 9.30701C10.4919 10.8881 11.0485 12.412 11.8893 13.8022C12.1391 14.2153 12.7533 15.8726 12.6212 15.8068C11.0526 15.0252 8.49146 13.7741 7.50628 12.2734C6.10936 10.1456 2.11369 13.3704 0.875098 14.1835" stroke="white" stroke-width="1.50259" stroke-linecap="round"/>
</svg>
