<svg width="25" height="24" viewBox="0 0 25 24" fill="none" xmlns="http://www.w3.org/2000/svg">
<path d="M1.39645 20.372C2.06068 17.9019 8.58332 13.5046 7.01601 10.9209C5.13112 7.81369 3.94017 4.64327 3.67788 1.11899C3.6472 0.706689 9.37477 5.42529 10.3673 6.59144C11.2206 7.59395 14.0357 6.16083 15.0722 6.03916C16.7715 5.8397 18.2461 5.54755 19.7297 4.9857C20.285 4.77537 23.6954 4.26776 23.3809 4.68673C21.9968 6.53035 20.4401 7.98194 18.8073 9.53681C17.9973 10.3082 16.0829 11.7212 16.3473 12.9368C16.8628 15.3077 17.6974 17.5928 18.9583 19.6775C19.3329 20.297 20.2539 22.7821 20.0558 22.6834C17.7037 21.5115 13.8631 19.6353 12.3858 17.385C10.291 14.1942 4.29931 19.0299 2.44199 20.2493" stroke="white" stroke-width="1.50259" stroke-linecap="round"/>
</svg>
