<svg width="20" height="21" viewBox="0 0 20 21" fill="none" xmlns="http://www.w3.org/2000/svg">
<path d="M1.42314 9.73144C2.89677 8.87237 8.05104 9.84836 8.52035 7.88854C9.08475 5.53161 10.0077 3.47029 11.5367 1.67693C11.7156 1.46713 12.2165 6.3905 12.1398 7.40884C12.0739 8.28427 14.0804 8.92573 14.6288 9.35435C15.5277 10.057 16.3636 10.6103 17.3303 11.04C17.6922 11.2009 19.5467 12.5603 19.2011 12.6113C17.6802 12.8358 16.2614 12.7934 14.7581 12.7643C14.0123 12.7499 12.4421 12.5215 11.9971 13.2216C11.1292 14.5871 10.4527 16.0617 10.0722 17.6412C9.95917 18.1106 9.22977 19.7205 9.18219 19.5808C8.61726 17.9219 7.6772 15.2309 8.03274 13.4713C8.53689 10.9763 3.42853 10.4572 1.97624 10.1638" stroke="white" stroke-width="1.50259" stroke-linecap="round"/>
</svg>
