<svg width="49" height="132" viewBox="0 0 49 132" fill="none" xmlns="http://www.w3.org/2000/svg">
<path d="M42.0692 25.2082C42.0692 19.8183 39.7691 14.7818 39.7691 9.33731C39.7691 7.2095 39.3091 5.23743 39.3091 3.15253C39.3091 2.75577 39.5395 1.22012 39.2068 0.929072C38.9958 0.744435 38.4166 2.11998 38.3379 2.23248C37.6744 3.18026 36.901 4.05436 36.1911 4.96707C34.423 7.24035 31.6529 8.63016 29.6485 10.6918C28.0941 12.2906 25.3698 14.523 24.5882 16.6722C22.5058 22.399 16.7914 17.7193 12.7298 16.3655C10.8733 15.7466 8.94208 15.0258 7.10729 14.5254C4.72108 13.8746 2.9962 13.7308 3.45265 16.6977C3.93491 19.8324 6.94172 23.3831 8.97295 25.6682C10.6568 27.5626 11.8858 29.8012 13.4454 31.7508C13.902 32.3215 10.0185 37.7184 9.40742 38.6511C7.56681 41.4605 6.25585 44.9423 4.16824 47.4938C3.34106 48.5048 1.82692 50.4649 1.56143 51.6596C1.18383 53.3588 4.88003 51.9922 5.82944 51.4296C7.41118 50.4923 10.7938 49.686 12.6276 49.5895C15.0467 49.4622 16.9741 48.1536 19.298 47.7494C23.5915 47.0027 26.3163 45.7652 29.2907 49.5895C31.685 52.6678 33.9382 55.8096 35.9866 59.1478C37.2115 61.1438 37.7002 63.4244 38.849 65.4348C39.6844 66.8967 40.2291 61.8336 40.2291 61.1413C40.2291 58.5174 40.2291 55.8936 40.2291 53.2697C40.2291 48.8667 40.3488 44.906 41.1236 40.6446C41.4256 38.9838 40.4557 37.6479 42.2992 36.9388C44.8608 35.9536 47.8533 35.9782 50.3497 34.8687C52.2079 34.0428 55.2285 33.9487 57.25 33.9487C60.9462 33.9487 57.9947 32.62 56.1 31.8785C50.889 29.8395 46.8721 25.5824 41.6092 23.8281" stroke="white" stroke-width="1.50259" stroke-linecap="round"/>
</svg>
