<svg width="19" height="19" viewBox="0 0 19 19" fill="none" xmlns="http://www.w3.org/2000/svg">
<path id="Vector 668" d="M0.78994 12.5248C1.72999 11.1015 6.78275 9.69126 6.33458 7.7265C5.79559 5.36363 5.70902 3.10678 6.28457 0.821415C6.3519 0.554049 8.98352 4.74512 9.36625 5.6919C9.69527 6.50582 11.7782 6.19125 12.4597 6.33235C13.577 6.56365 14.5716 6.68906 15.6286 6.64566C16.0243 6.62942 18.2893 7.02577 18.0021 7.22471C16.7383 8.10015 15.4478 8.69118 14.0874 9.33157C13.4126 9.64926 11.9038 10.1406 11.8153 10.9655C11.6427 12.5743 11.69 14.1959 12.0493 15.7804C12.156 16.2513 12.2159 18.0177 12.1113 17.9135C10.8695 16.677 8.83389 14.6817 8.37251 12.9468C7.7183 10.4869 2.90926 12.2863 1.47738 12.6671" stroke="white" stroke-width="1.50259" stroke-linecap="round"/>
</svg>
