<svg width="55" height="84" viewBox="0 0 55 84" fill="none" xmlns="http://www.w3.org/2000/svg">
<path d="M35.1337 4.7715C40.6987 3.35948 45.7087 1.38892 51.5683 1.38892C56.584 1.38892 61.4568 2.53871 66.4311 2.61895C74.0377 2.74163 80.8433 6.79524 87.0341 10.6825C92.0957 13.8607 95.1361 18.3233 98.4802 23.1536C100.035 25.3993 101.654 27.6783 103.229 29.97C104.481 31.7909 106.559 34.5145 106.783 36.7523C107.078 39.7059 109.243 42.2641 109.243 45.3625C109.243 48.1713 108.122 50.7524 108.013 53.5968C107.977 54.5198 107.425 55.474 107.398 56.4327C107.36 57.7686 107.494 59.6825 106.937 60.9087C106.557 61.7443 106.783 63.0741 106.783 63.9667C106.783 65.581 106.546 67.3874 106.236 68.9722C105.394 73.2792 102.885 77.2317 100.804 81.0162C99.1471 84.028 96.8033 87.7127 94.4143 90.1902C91.9829 92.7116 90.116 95.4639 87.2391 97.6558C84.5574 99.699 81.405 101.741 78.3385 103.157C75.1516 104.628 72.1069 106.163 68.8912 107.479C65.5148 108.86 62.2816 109.016 58.658 109.016C50.4586 109.016 42.5552 108.836 34.5529 107.018C28.0309 105.535 22.5896 101.231 16.9908 97.8095C10.9161 94.0972 8.28557 87.624 5.76677 81.1871C4.50115 77.9527 3.29249 74.6677 1.92293 71.5006C0.45409 68.1039 0.691293 64.326 1.01749 60.7378C1.42227 56.2852 1.92293 51.9989 1.92293 47.515C1.92293 43.4858 2.86881 40.7074 4.50257 37.0768C6.3121 33.0557 8.47536 28.6728 11.1481 25.1353C12.4332 23.4345 13.4611 21.5454 14.8382 19.9077C16.3247 18.14 18.6446 16.8268 20.5271 15.5172C25.7125 11.9099 31.0379 8.2032 36.6713 5.38651" stroke="white" stroke-width="1.50259" stroke-linecap="round"/>
<path d="M9.61172 27.2204C17.7787 27.2204 26.1646 26.7216 34.2465 25.5291C37.0724 25.1122 39.5344 23.8134 42.2758 23.2912C45.048 22.7631 47.5125 21.608 50.3564 21.3607C53.2356 21.1104 56.2652 20.8414 59.1033 20.3186C65.2285 19.1903 71.26 17.6849 77.2633 15.9964C80.1905 15.1732 83.5241 14.4036 86.181 13.0751" stroke="white" stroke-width="1.50259" stroke-linecap="round"/>
<path d="M4.38199 78.267C7.46844 78.267 10.5552 77.9595 13.6072 77.9595C15.9537 77.9595 18.0781 78.3367 20.3724 78.5916C24.5443 79.0552 27.7695 82.0007 31.2889 83.9559C35.9558 86.5486 33.2302 91.406 29.8368 94.1208C26.5375 96.7601 22.5966 97.1429 19.1423 98.87" stroke="white" stroke-width="1.50259" stroke-linecap="round"/>
<path d="M25.2921 101.944C31.3068 100.019 37.0941 98.5979 42.1367 94.5638C44.4704 92.6969 47.2505 91.2787 49.8927 89.8829C51.3115 89.1333 52.4914 88.2444 54.0269 87.662C56.3877 86.7665 59.3758 86.9616 61.8342 86.8761C65.8436 86.7367 69.8734 86.3314 73.8783 86.2611C75.1841 86.2382 76.5819 86.4266 77.8588 86.1074C78.9009 85.8468 79.9987 85.9088 81.0193 85.5094C82.7108 84.8475 84.2145 84.0611 86.0077 83.6473C89.9244 82.7434 93.7716 81.6485 97.8638 81.6485" stroke="white" stroke-width="1.50259" stroke-linecap="round"/>
<path d="M100.015 76.4192C95.5229 77.6375 90.7995 77.719 86.2118 77.9738C80.1508 78.3106 74.069 79.3609 68.0347 78.418C65.3116 77.9925 62.9653 79.1455 60.3299 79.631C58.3358 79.9983 56.3539 80.1093 54.3336 80.1093C51.2819 80.1093 47.475 80.7071 44.5104 79.9385C41.597 79.1831 38.4876 79.259 35.7464 77.8884C31.5476 75.789 27.0015 72.8347 22.1478 72.7291C16.0549 72.5967 9.90885 72.4216 3.76569 72.4216" stroke="white" stroke-width="1.50259" stroke-linecap="round"/>
<path d="M1.30637 57.048C3.29858 57.0017 5.32521 56.4917 7.28567 56.1255C14.5171 54.7746 21.9718 54.6816 29.2724 53.8363C32.5796 53.4533 35.5945 52.905 38.8223 52.3671C46.0468 51.163 53.5852 50.5904 60.9286 50.5904C63.6392 50.5904 66.3499 50.5904 69.0605 50.5904C70.265 50.5904 71.277 50.4743 72.3576 51.0687C74.9394 52.4887 77.1803 54.5208 80.2674 54.588C84.1304 54.6719 88.0029 54.588 91.8673 54.588C94.4574 54.588 98.4661 53.786 100.939 54.8271C101.456 55.0448 102.104 54.8137 102.647 54.9125C103.872 55.1353 104.893 55.5105 106.166 55.5105" stroke="white" stroke-width="1.50259" stroke-linecap="round"/>
<path d="M95.4042 22.6087C90.9704 22.6087 85.3859 22.4453 81.7202 25.5471C78.2961 28.4443 74.3151 30.2374 70.5132 32.5856C69.5397 33.1869 67.1945 33.9048 66.5669 34.909C65.8494 36.057 63.776 37.1781 62.5693 37.6765C59.6847 38.868 56.6785 39.5653 53.6516 40.4441C51.0645 41.1952 48.5537 42.0186 46.0152 42.9212C43.5578 43.795 40.8335 45.3286 38.225 45.6546C32.9974 46.3081 27.6666 46.2867 22.3713 46.2867C19.0126 46.2867 15.7357 47.1619 12.3773 47.2092C8.77289 47.26 5.20822 47.5168 1.61452 47.5168" stroke="white" stroke-width="1.50259" stroke-linecap="round"/>
</svg>
