<svg width="25" height="16" viewBox="0 0 25 16" fill="none" xmlns="http://www.w3.org/2000/svg">
<path d="M1.54681 12.2316C2.21104 9.7615 8.73368 5.36427 7.16637 2.78056C5.28148 -0.326687 4.09053 -3.49711 3.82824 -7.02139C3.79756 -7.43369 9.52513 -2.71509 10.5177 -1.54894C11.3709 -0.54643 14.1861 -1.97955 15.2226 -2.10122C16.9218 -2.30068 18.3965 -2.59283 19.88 -3.15468C20.4354 -3.36501 23.8458 -3.87262 23.5313 -3.45365C22.1472 -1.61003 20.5905 -0.158444 18.9577 1.39643C18.1477 2.16778 16.2333 3.58082 16.4976 4.79638C17.0132 7.1673 17.8478 9.45242 19.1086 11.5371C19.4833 12.1567 20.4042 14.6418 20.2061 14.5431C17.8541 13.3711 14.0134 11.495 12.5361 9.24463C10.4414 6.05383 4.44967 10.8896 2.59235 12.1089" stroke="white" stroke-width="1.50259" stroke-linecap="round"/>
</svg>
